Coordinates
version=1
nRows=19
nColumns=24
inDegrees=yes

Units are S.I. units (second, meters, Newtons, ...)
Angles are in degrees.

endheader
time	pelvis_tilt	pelvis_list	pelvis_rotation	pelvis_tx	pelvis_ty	pelvis_tz	hip_flexion_r	hip_adduction_r	hip_rotation_r	knee_angle_r	ankle_angle_r	subtalar_angle_r	mtp_angle_r	hip_flexion_l	hip_adduction_l	hip_rotation_l	knee_angle_l	ankle_angle_l	subtalar_angle_l	mtp_angle_l	lumbar_extension	lumbar_bending	lumbar_rotation
      0.98316667	     -6.53964851	     -3.37653575	     -3.53634218	     -0.08525896	      1.00717268	      0.29236708	     -1.64236861	      8.73413719	      1.37341448	    -17.92068295	     12.28831396	     -1.07166020	      8.57548195	     26.44810582	     -2.59288393	    -11.50165508	      4.93231880	      6.17954313	      6.49942334	      0.71016777	      2.02636749	      2.87017279	      6.29696450
      0.98733333	     -6.54722597	     -3.31376256	     -3.54924387	     -0.07949081	      1.00649014	      0.29211569	     -1.73458480	      8.63693376	      1.40473478	    -18.41176122	     12.26118451	     -1.07305516	     10.02345030	     26.46021391	     -2.45217696	    -10.90627184	      4.61644788	      5.94858855	      6.05224123	      4.27448345	      2.08506895	      2.78833544	      6.30827350
      0.99150000	     -6.49634454	     -3.17584298	     -3.59248561	     -0.07367054	      1.00595244	      0.29191327	     -1.86410514	      8.45551916	      1.47043115	    -18.95538958	     12.25602255	     -1.07056861	     10.03271601	     26.45046341	     -2.25638852	    -10.63692785	      4.13722713	      5.98305634	      5.99324275	      4.29837121	      2.05612784	      2.60746625	      6.34312443
      0.99566667	     -6.43508313	     -3.04479751	     -3.60910844	     -0.06781928	      1.00542653	      0.29168594	     -1.98205878	      8.28038419	      1.48208520	    -19.54706884	     12.28661242	     -0.95463481	     10.08558840	     26.39594472	     -2.05582532	    -10.13946685	      3.69043132	      5.86724117	      5.63438914	      4.40497832	      2.04418302	      2.40700048	      6.42317389
      0.99983333	     -6.38371113	     -2.91688999	     -3.62533064	     -0.06197995	      1.00491953	      0.29148298	     -2.07317711	      8.12247340	      1.54160086	    -20.15872431	     12.20911988	     -1.02468145	     10.18424882	     26.36286094	     -1.86459436	     -9.64024356	      3.18780605	      5.65375908	      5.14526582	      4.59081273	      2.02459516	      2.24009765	      6.44755353
      1.00400000	     -6.31463217	     -2.77983882	     -3.63387246	     -0.05612829	      1.00444388	      0.29127314	     -2.15440191	      7.95424169	      1.57124362	    -20.82363169	     12.11045148	     -1.09859082	     10.33018825	     26.31790586	     -1.66359063	     -9.15167210	      2.64005774	      5.41886082	      4.63043301	      4.84036659	      1.98594359	      2.05024866	      6.47444428
      1.00816667	     -6.23897047	     -2.62097776	     -3.63654600	     -0.05023255	      1.00400249	      0.29106674	     -2.22339372	      7.76610351	      1.60584911	    -21.52451452	     11.97278752	     -1.18454782	     10.50959177	     26.25780125	     -1.44057223	     -8.65435010	      2.08158194	      5.14924635	      4.08482739	      5.11758264	      1.96538990	      1.81269564	      6.50283221
      1.01233333	     -6.12808120	     -2.45880321	     -3.63848104	     -0.04433905	      1.00365048	      0.29086006	     -2.30376316	      7.57233886	      1.62110244	    -22.26750485	     11.79191927	     -1.28448237	     10.72818819	     26.16481860	     -1.21503020	     -8.17406961	      1.49236829	      4.82534261	      3.48072974	      5.42024989	      1.87290797	      1.59192277	      6.52815378
      1.01650000	     -6.06725109	     -2.28998489	     -3.63770847	     -0.03842945	      1.00323937	      0.29064918	     -2.29877940	      7.37606778	      1.62366501	    -23.06932237	     11.57128007	     -1.38723382	     10.97864510	     26.12749486	     -0.98561400	     -7.67930375	      0.88436425	      4.46334421	      2.82417707	      5.72898210	      1.86208469	      1.35501872	      6.54752316
      1.02066667	     -5.95214059	     -2.11718828	     -3.62640141	     -0.03249755	      1.00293736	      0.29041746	     -2.33325581	      7.16943912	      1.59922263	    -23.89077037	     11.21734347	     -1.53743912	     13.21482680	     26.03470197	     -0.74907932	     -7.24304717	      0.26134337	      4.06431836	      2.22040536	      8.13346966	      1.77240014	      1.10258075	      6.45494666
      1.02483333	     -5.86373021	     -1.92476632	     -3.63185543	     -0.02656651	      1.00262886	      0.29019104	     -2.29692936	      6.93781988	      1.55641111	    -24.79531109	     10.93951451	     -1.59789549	     13.27238567	     25.96335926	     -0.49998236	     -6.79919690	     -0.36380317	      3.64511712	      1.53629792	      8.16547030	      1.73498464	      0.83251505	      6.60053822
      1.02900000	     -5.74411121	     -1.72945980	     -3.61942618	     -0.02063041	      1.00240581	      0.28994311	     -2.26796725	      6.69940772	      1.47782308	    -25.73629288	     10.56844759	     -1.68779517	     13.39829685	     25.84913485	     -0.23951474	     -6.31680755	     -0.97414745	      3.18446751	      0.75537055	      8.22009191	      1.64792615	      0.55595731	      6.59193781
      1.03316667	     -5.63927394	     -1.52333976	     -3.60947939	     -0.01468843	      1.00218130	      0.28967878	     -2.18891485	      6.44261849	      1.36665606	    -26.73339141	     10.15599028	     -1.74739654	     13.58437010	     25.75496348	      0.02858688	     -5.87891872	     -1.60067112	      2.72331466	      0.00602947	      8.28345968	      1.58495608	      0.26606605	      6.60510408
      1.03733333	     -5.52502165	     -1.30381510	     -3.60068394	     -0.00873687	      1.00202117	      0.28940370	     -2.08982685	      6.16319983	      1.22853350	    -27.77389574	      9.67710520	     -1.80432403	     13.82575488	     25.64651899	      0.30793376	     -5.47641646	     -2.22506498	      2.25244593	     -0.72093234	      8.34858449	      1.50801369	     -0.04369895	      6.61190711
      1.04150000	     -5.42102503	     -1.08297344	     -3.58982362	     -0.00279075	      1.00187640	      0.28910100	     -1.94573815	      5.87245335	      1.05474885	    -28.86605266	      9.13343143	     -1.83677587	     14.14225037	     25.54878677	      0.58814874	     -5.08651036	     -2.85482677	      1.80060062	     -1.44757823	      8.41554408	      1.44388772	     -0.34355513	      6.61054943
      1.04566667	     -5.30828029	     -0.85011247	     -3.58102134	      0.00315775	      1.00177811	      0.28878580	     -1.77877754	      5.55653085	      0.84797983	    -30.00262761	      8.52209842	     -1.85354546	     14.53828424	     25.43918122	      0.87753426	     -4.73979548	     -3.48558950	      1.36587599	     -2.13496323	      8.47602340	      1.36951082	     -0.66021273	      6.60923485
      1.04983333	     -5.19421673	     -0.60649541	     -3.57400994	      0.00910188	      1.00172839	      0.28845080	     -1.58074753	      5.21629091	      0.61112860	    -31.18393681	      7.84691620	     -1.85234301	     15.00757376	     25.32538191	      1.17556650	     -4.43919302	     -4.11419741	      0.95545611	     -2.76132256	      8.52322842	      1.29059252	     -0.99385817	      6.60279870
      1.05400000	     -5.06468921	     -0.36458783	     -3.56954669	      0.01504935	      1.00174148	      0.28809290	     -1.37593031	      4.86038412	      0.34782759	    -32.37881885	      6.96703390	     -1.87648245	     19.07402881	     25.20219891	      1.46603181	     -4.22613760	     -4.76993571	      0.67464086	     -3.21470350	      8.74254584	      1.18870684	     -1.29980391	      6.57286876
      1.05816667	     -4.95350606	     -0.10179564	     -3.57246864	      0.02099361	      1.00177407	      0.28773775	     -1.11161145	      4.47100273	      0.06133411	    -33.64136022	      6.15659605	     -1.84133636	     19.15483033	     25.08534818	      1.77293080	     -4.03104909	     -5.40155789	      0.37123975	     -3.72198654	      8.72322277	      1.12042848	     -1.64649079	      6.59295938
